<svg xmlns="http://www.w3.org/2000/svg" xmlns:xlink="http://www.w3.org/1999/xlink" version="1.1" x="0px" y="0px" viewBox="0 0 80 100" enable-background="new 0 0 80 80" xml:space="preserve"><g><g><path fill="#000000" d="M41,28c-1.654,0-3-1.346-3-3s1.346-3,3-3s3,1.346,3,3S42.654,28,41,28z M41,24c-0.552,0-1,0.448-1,1    s0.448,1,1,1s1-0.448,1-1S41.552,24,41,24z"/></g><g><path fill="#000000" d="M41,69.5c-16.542,0-30-13.458-30-30s13.458-30,30-30s30,13.458,30,30S57.542,69.5,41,69.5z M41,11.5    c-15.439,0-28,12.561-28,28s12.561,28,28,28s28-12.561,28-28S56.439,11.5,41,11.5z"/></g><g><path fill="#000000" d="M41,58c-2.206,0-4-1.794-4-4V35c0-2.206,1.794-4,4-4s4,1.794,4,4v19C45,56.206,43.206,58,41,58z M41,33    c-1.103,0-2,0.897-2,2v19c0,1.103,0.897,2,2,2s2-0.897,2-2V35C43,33.897,42.103,33,41,33z"/></g></g></svg>